<svg
        xmlns="http://www.w3.org/2000/svg"
        width="20"
        height="20"
        viewBox="0 0 16 16"
        fill="none"
>
    <path fill-rule="evenodd" clip-rule="evenodd" d="M14.8636 4.20724C15.1174 4.31602 15.2349 4.60996 15.1262 4.86377L14.6666 4.66681C15.1262 4.86377 15.1262 4.86366 15.1262 4.86377L15.1257 4.86489L15.125 4.86655L15.1228 4.87146L15.1157 4.88751C15.1097 4.90093 15.1012 4.91974 15.0901 4.94353C15.0679 4.9911 15.0355 5.05865 14.9925 5.14292C14.9066 5.31135 14.7783 5.54727 14.6056 5.82446C14.3218 6.27982 13.9149 6.85189 13.3746 7.42029L14.0202 8.06582C14.2154 8.26109 14.2154 8.57769 14.0202 8.77295C13.8249 8.96822 13.5083 8.96822 13.313 8.77295L12.646 8.10589C12.2062 8.47435 11.7018 8.82015 11.13 9.10429L11.7524 10.0608C11.903 10.2922 11.8374 10.602 11.606 10.7526C11.3745 10.9032 11.0648 10.8376 10.9142 10.6062L10.188 9.49022C9.66851 9.65989 9.10598 9.77522 8.49991 9.81655V11.0002C8.49991 11.2763 8.27605 11.5002 7.99991 11.5002C7.72378 11.5002 7.49991 11.2763 7.49991 11.0002V9.81655C6.91258 9.77649 6.36604 9.66695 5.85986 9.50575L5.14381 10.6062C4.99321 10.8377 4.68349 10.9032 4.45203 10.7526C4.22057 10.602 4.15503 10.2923 4.30563 10.0608L4.91391 9.12602C4.33765 8.84455 3.82919 8.50029 3.38559 8.13229L2.74494 8.77295C2.54968 8.96822 2.2331 8.96822 2.03783 8.77295C1.84257 8.57769 1.84257 8.26115 2.03783 8.06589L2.65368 7.45002C2.10397 6.87689 1.69015 6.29785 1.40183 5.83659C1.22654 5.55617 1.09638 5.31725 1.00923 5.14661C0.965634 5.06123 0.932714 4.99278 0.910227 4.94457C0.898981 4.92047 0.890334 4.9014 0.884254 4.8878L0.877061 4.87155L0.874901 4.86658L0.874174 4.86491L0.873901 4.86427C0.873854 4.86415 0.873687 4.86377 1.33326 4.66681L0.873901 4.86427C0.765127 4.61045 0.882487 4.31602 1.1363 4.20724C1.38991 4.09856 1.68357 4.21585 1.79257 4.46923C1.79253 4.46914 1.79261 4.46932 1.79257 4.46923L1.7932 4.47069L1.79725 4.47983C1.80118 4.48863 1.80758 4.50275 1.81646 4.5218C1.83424 4.55991 1.86195 4.61765 1.89982 4.6918C1.97561 4.84021 2.09173 5.05366 2.24979 5.30655C2.56687 5.8138 3.04769 6.47154 3.70372 7.08122C4.28099 7.61769 4.98837 8.11189 5.83441 8.43735C6.47074 8.68215 7.19025 8.83349 7.99991 8.83349C8.82771 8.83349 9.56131 8.67535 10.2082 8.42069C11.0492 8.08969 11.7518 7.59229 12.3244 7.05482C12.9708 6.44813 13.4445 5.79692 13.7569 5.29562C13.9126 5.04569 14.027 4.83499 14.1016 4.68859C14.139 4.61545 14.1662 4.55853 14.1838 4.52098C14.1925 4.50221 14.1988 4.4883 14.2027 4.47964L14.2066 4.47065L14.207 4.46985C14.207 4.46992 14.207 4.46979 14.207 4.46985M14.8636 4.20724C14.6098 4.0985 14.3158 4.21618 14.207 4.46985L14.8636 4.20724ZM1.79257 4.46923C1.79253 4.46914 1.79261 4.46932 1.79257 4.46923V4.46923Z" fill="#A0A0AB"/>
</svg>