<svg
        xmlns="http://www.w3.org/2000/svg"
        width="20"
        height="20"
        viewBox="0 0 16 16"
        fill="none"
>
    <path fill-rule="evenodd" clip-rule="evenodd" d="M8 5.5C6.61929 5.5 5.5 6.61929 5.5 8C5.5 9.38073 6.61929 10.5 8 10.5C9.38073 10.5 10.5 9.38073 10.5 8C10.5 6.61929 9.38073 5.5 8 5.5ZM6.5 8C6.5 7.1716 7.1716 6.5 8 6.5C8.8284 6.5 9.5 7.1716 9.5 8C9.5 8.8284 8.8284 9.5 8 9.5C7.1716 9.5 6.5 8.8284 6.5 8Z" fill="#6C737F"/>
    <path fill-rule="evenodd" clip-rule="evenodd" d="M7.99999 2.16666C4.99057 2.16666 2.96352 3.96946 1.78704 5.4979L1.76582 5.52546C1.49975 5.87101 1.2547 6.18927 1.08845 6.56559C0.910422 6.96859 0.833328 7.40779 0.833328 7.99999C0.833328 8.59219 0.910422 9.03139 1.08845 9.43439C1.2547 9.81072 1.49975 10.129 1.76583 10.4745L1.78704 10.5021C2.96352 12.0305 4.99057 13.8333 7.99999 13.8333C11.0094 13.8333 13.0365 12.0305 14.2129 10.5021L14.2341 10.4745C14.5003 10.129 14.7453 9.81072 14.9115 9.43439C15.0896 9.03139 15.1667 8.59219 15.1667 7.99999C15.1667 7.40779 15.0896 6.96859 14.9115 6.56559C14.7453 6.18926 14.5003 5.871 14.2341 5.52544L14.2129 5.4979C13.0365 3.96946 11.0094 2.16666 7.99999 2.16666ZM2.57947 6.10786C3.66575 4.6966 5.43357 3.16666 7.99999 3.16666C10.5664 3.16666 12.3343 4.6966 13.4205 6.10786C13.7129 6.48772 13.8842 6.71472 13.9968 6.96966C14.1021 7.20799 14.1667 7.49926 14.1667 7.99999C14.1667 8.50072 14.1021 8.79199 13.9968 9.03032C13.8842 9.28526 13.7129 9.51226 13.4205 9.89212C12.3343 11.3034 10.5664 12.8333 7.99999 12.8333C5.43357 12.8333 3.66575 11.3034 2.57947 9.89212C2.28709 9.51226 2.11582 9.28526 2.00317 9.03032C1.89789 8.79199 1.83333 8.50072 1.83333 7.99999C1.83333 7.49926 1.89789 7.20799 2.00317 6.96966C2.11582 6.71472 2.28708 6.48772 2.57947 6.10786Z" fill="#6C737F"/>
</svg>
